<?xml version="1.0" encoding="UTF-8"?>
<svg width="100pt" height="100pt" version="1.1" viewBox="0 0 100 100" xmlns="http://www.w3.org/2000/svg">
 <g>
  <path d="m25.754 63.289h-14.109c-6.0273 0-10.957-4.9297-10.957-10.957v-10.547c0-6.0273 4.9297-10.957 10.957-10.957h16.164c1.5078 0 0.68359 1.2344 0.68359 2.7383v26.984c0 1.5039-1.2305 2.7383-2.7383 2.7383zm-14.109-26.988c-3.0156 0-5.4805 2.4648-5.4805 5.4805v10.547c0 3.0156 2.4648 5.4805 5.4805 5.4805h11.371v-21.508z"/>
  <path d="m70.684 91.098c-26.027-23.836-32.875-25.344-45.207-27.809h-0.27344c-1.2344-0.27344-2.1914-1.3711-2.1914-2.7383l0.003906-26.988c0-1.2344 0.95703-2.4648 2.1914-2.7383h0.27344c12.328-2.6016 19.316-3.9727 45.344-27.809 2.6016-2.3281 6.1641-3.0156 9.4531-1.5078 3.1523 1.3711 5.207 4.5195 5.207 7.9453v75.207c0 3.5625-2.0547 6.5742-5.207 7.9453-4.3867 1.9141-7.8125-0.003907-9.5938-1.5078zm-42.191-32.742c11.781 2.4648 20.137 5.0703 45.891 28.766 1.5078 1.3711 3.0156 0.82031 3.5625 0.54688 0.41016-0.13672 1.918-0.95703 1.918-3.0156v-75.199c0-1.918-1.5078-2.7383-1.918-3.0156-0.41016-0.13672-2.0547-0.82031-3.5625 0.54688-25.891 23.699-34.109 26.301-45.891 28.766z"/>
  <path d="m82.602 30.41c-0.27344 0-0.54687 0-0.82031 0.13672v33.016c0.27344 0.13672 0.54688 0.13672 0.82031 0.13672 9.1797 0 16.711-7.5352 16.711-16.711 0.003906-9.1797-7.5312-16.578-16.711-16.578zm2.7422 27.535v-21.781c4.793 1.2344 8.4922 5.6172 8.4922 10.82 0 5.3438-3.5625 9.7266-8.4922 10.961z"/>
  <path d="m81.781 38.766h-12.875c-1.5078 0-2.7383 1.2344-2.7383 2.7383 0 1.5078 1.2344 2.7383 2.7383 2.7383h12.875v-5.4766z"/>
  <path d="m81.781 49.727h-7.3984c-1.5078 0-2.7383 1.2344-2.7383 2.7383 0 1.5078 1.2344 2.7383 2.7383 2.7383h7.3984z"/>
  <path d="m85.344 30.547v-21.094c0-3.5625-2.0547-6.5742-5.207-7.9453-3.1523-1.3711-6.8477-0.82031-9.4531 1.5078-26.027 23.836-32.875 25.344-45.207 27.809l-13.832-0.003907c-6.0273 0-10.957 4.9297-10.957 10.957v10.547c0 6.0273 4.9297 10.957 10.957 10.957h1.918l-1.6445 27.398c-0.27344 5.3438 4.2461 8.6289 8.2188 8.6289h8.7656c7.125-0.41016 8.3555-6.3008 8.2188-8.6289l-1.5039-24.789c7.9453 2.7383 16.711 8.4922 35.07 25.207 1.6445 1.5078 5.0703 3.4258 9.4531 1.5078 3.1523-1.3711 5.207-4.5195 5.207-7.9453l-0.003906-21.234c7.9453-1.3711 13.973-8.2188 13.973-16.438 0-8.2227-6.0273-15.07-13.973-16.441zm-73.699 27.262c-3.0156 0-5.4805-2.4648-5.4805-5.4805v-10.547c0-3.0156 2.4648-5.4805 5.4805-5.4805h11.371v21.508zm17.258 36.027h-8.7656c-1.6445 0-2.875-1.5078-2.7383-2.875l1.6445-27.672h6.4375c1.6445 0.27344 3.1523 0.68359 4.6562 0.95703l1.5078 26.711c0.13672 1.0977-0.54688 2.7422-2.7422 2.8789zm50.961-55.07h-10.957c-1.5078 0-2.7383 1.2344-2.7383 2.7383 0 1.5078 1.2344 2.7383 2.7383 2.7383h10.957v5.4805h-5.4805c-1.5078 0-2.7383 1.2344-2.7383 2.7383 0 1.5078 1.2344 2.7383 2.7383 2.7383h5.4805v29.453c0 1.918-1.5078 2.7383-1.918 3.0156-0.41016 0.13672-2.0547 0.68359-3.5625-0.54688-25.891-23.699-34.109-26.301-45.891-28.766v-22.602c11.781-2.4648 20.137-5.0703 45.891-28.766 1.5078-1.3711 3.0156-0.82031 3.5625-0.54688 0.41016 0.13672 1.918 0.95703 1.918 3.0156zm5.4805 19.18v-21.781c4.793 1.2344 8.4922 5.6172 8.4922 10.82 0 5.3438-3.5625 9.7266-8.4922 10.961z"/>
 </g>
</svg>
