<?xml version="1.0" encoding="UTF-8"?>
<svg width="100pt" height="100pt" version="1.1" viewBox="0 0 100 100" xmlns="http://www.w3.org/2000/svg">
 <path d="m10.359 7.5c-0.75781 0-1.4844 0.30078-2.0234 0.83594-0.53516 0.53906-0.83594 1.2656-0.83594 2.0234v79.281c0 1.582 1.2812 2.8594 2.8594 2.8594h79.281c1.5781 0 2.8594-1.2773 2.8594-2.8594v-79.281c0-0.75781-0.30078-1.4844-0.83594-2.0234-0.53906-0.53516-1.2656-0.83594-2.0234-0.83594zm5.7188 5.7188h67.844c0.75781 0 1.4844 0.30078 2.0234 0.83594 0.53516 0.53906 0.83594 1.2656 0.83594 2.0234v67.848c0 1.5781-1.2812 2.8594-2.8594 2.8555h-67.844c-1.5781 0.003906-2.8594-1.2773-2.8594-2.8555v-67.848c0-0.75781 0.30078-1.4844 0.83594-2.0234 0.53906-0.53516 1.2656-0.83594 2.0234-0.83594zm17.922 24.781c-2.2148 0-4 1.7852-4 4s1.7852 4 4 4h32c2.2148 0 4-1.7852 4-4s-1.7852-4-4-4zm0 16c-2.2148 0-4 1.7852-4 4s1.7852 4 4 4h32c2.2148 0 4-1.7852 4-4s-1.7852-4-4-4z"/>
</svg>
