<svg id="Layer_1" data-name="Layer 1" xmlns="http://www.w3.org/2000/svg" viewBox="0 0 360 185"><circle cx="13.47" cy="173.34" r="6.67"/><circle cx="30.15" cy="173.34" r="6.67"/><circle cx="46.83" cy="173.34" r="6.67"/><circle cx="63.52" cy="173.34" r="6.67"/><circle cx="80.22" cy="173.34" r="6.67"/><circle cx="96.93" cy="173.35" r="6.67"/><circle cx="16.2" cy="149.21" r="6.67"/><circle cx="33.14" cy="149.45" r="6.67"/><circle cx="50.14" cy="149.75" r="6.67"/><circle cx="67.67" cy="148.5" r="6.67"/><circle cx="84.99" cy="148.8" r="6.67"/><circle cx="22.41" cy="125.75" r="6.67"/><circle cx="39.92" cy="126.35" r="6.67"/><circle cx="102.55" cy="149.24" r="6.67"/><circle cx="57.6" cy="127.12" r="6.67"/><circle cx="31.97" cy="103.43" r="6.67"/><circle cx="77.04" cy="125.14" r="6.67"/><circle cx="50.31" cy="104.63" r="6.67"/><circle cx="95.7" cy="126.2" r="6.67"/><circle cx="68.97" cy="106.18" r="6.67"/><circle cx="44.66" cy="82.73" r="6.67"/><circle cx="115.01" cy="127.84" r="6.67"/><circle cx="64.04" cy="84.85" r="6.67"/><circle cx="91.21" cy="104.32" r="6.67"/><circle cx="83.88" cy="87.6" r="6.67"/><circle cx="60.23" cy="64.1" r="6.67"/><circle cx="111.68" cy="106.97" r="6.67"/><circle cx="80.75" cy="67.53" r="6.67"/><circle cx="78.33" cy="47.93" r="6.67"/><circle cx="109.51" cy="87.03" r="6.67"/><circle cx="101.86" cy="71.97" r="6.67"/><circle cx="133.2" cy="111.05" r="6.67"/><circle cx="100.02" cy="53.1" r="6.67"/><circle cx="98.6" cy="34.56" r="6.67"/><circle cx="131.94" cy="92.31" r="6.67"/><circle cx="122.33" cy="59.78" r="6.67"/><circle cx="131.1" cy="74.08" r="6.67"/><circle cx="121.36" cy="41.94" r="6.67"/><circle cx="120.59" cy="24.28" r="6.67"/><circle cx="155.52" cy="100.34" r="6.67"/><circle cx="144.64" cy="51.44" r="6.67"/><circle cx="155.19" cy="83.13" r="6.67"/><circle cx="144.2" cy="34.34" r="6.67"/><circle cx="143.84" cy="17.3" r="6.67"/><circle cx="154.97" cy="66.05" r="6.67"/><circle cx="168.09" cy="47.2" r="6.67"/><circle cx="167.96" cy="30.48" r="6.67"/><circle cx="167.86" cy="13.78" r="6.67"/><circle cx="180" cy="63.33" r="6.67"/><circle cx="180" cy="80" r="6.67"/><circle cx="180" cy="96.67" r="6.67"/><circle cx="192.14" cy="13.78" r="6.67"/><circle cx="192.04" cy="30.48" r="6.67"/><circle cx="191.91" cy="47.2" r="6.67"/><circle cx="205.03" cy="66.05" r="6.67"/><circle cx="216.16" cy="17.3" r="6.67"/><circle cx="215.8" cy="34.34" r="6.67"/><circle cx="204.81" cy="83.13" r="6.67"/><circle cx="215.36" cy="51.44" r="6.67"/><circle cx="204.48" cy="100.34" r="6.67"/><circle cx="239.41" cy="24.28" r="6.67"/><circle cx="238.64" cy="41.94" r="6.67"/><circle cx="228.9" cy="74.08" r="6.67"/><circle cx="237.67" cy="59.78" r="6.67"/><circle cx="228.06" cy="92.31" r="6.67"/><circle cx="261.4" cy="34.56" r="6.67" transform="translate(170.65 282.12) rotate(-77.4)"/><circle cx="259.98" cy="53.1" r="6.67" transform="translate(165.92 301.22) rotate(-80.78)"/><circle cx="226.8" cy="111.05" r="6.67"/><circle cx="258.14" cy="71.97" r="6.67" transform="translate(145.75 315.25) rotate(-80.78)"/><circle cx="250.49" cy="87.03" r="6.67"/><circle cx="281.67" cy="47.93" r="6.67"/><circle cx="279.25" cy="67.53" r="6.67"/><circle cx="248.32" cy="106.97" r="6.67"/><circle cx="299.77" cy="64.1" r="6.67"/><circle cx="276.12" cy="87.6" r="6.67"/><circle cx="268.79" cy="104.32" r="6.67"/><circle cx="295.96" cy="84.85" r="6.67"/><circle cx="244.99" cy="127.84" r="6.67"/><circle cx="315.34" cy="82.73" r="6.67"/><circle cx="291.03" cy="106.18" r="6.67"/><circle cx="264.3" cy="126.2" r="6.67"/><circle cx="309.69" cy="104.63" r="6.67"/><circle cx="282.96" cy="125.14" r="6.67"/><circle cx="328.03" cy="103.43" r="6.67"/><circle cx="302.4" cy="127.12" r="6.67"/><circle cx="257.45" cy="149.24" r="6.67" transform="translate(68.9 379.46) rotate(-80.78)"/><circle cx="320.08" cy="126.35" r="6.67"/><circle cx="337.59" cy="125.75" r="6.67"/><circle cx="275.01" cy="148.8" r="6.67"/><circle cx="292.33" cy="148.5" r="6.67"/><circle cx="309.86" cy="149.75" r="6.67"/><circle cx="326.86" cy="149.45" r="6.67"/><circle cx="343.8" cy="149.21" r="6.67"/><circle cx="263.07" cy="173.35" r="6.67"/><circle cx="279.78" cy="173.34" r="6.67"/><circle cx="296.48" cy="173.34" r="6.67"/><circle cx="313.17" cy="173.34" r="6.67"/><circle cx="329.85" cy="173.34" r="6.67"/><circle cx="346.53" cy="173.34" r="6.67"/></svg>
