<?xml version="1.0" encoding="UTF-8"?>
<svg width="100pt" height="100pt" version="1.1" viewBox="0 0 100 100" xmlns="http://www.w3.org/2000/svg">
 <g>
  <path d="m50 0.39062c-27.363 0-49.609 22.246-49.609 49.609s22.246 49.609 49.609 49.609 49.609-22.246 49.609-49.609-22.246-49.609-49.609-49.609zm2.7539 5.6055c22.129 1.3672 39.883 19.121 41.25 41.25h-10.137c-1.3281-16.543-14.57-29.785-31.113-31.113zm25.723 44.004c0 15.703-12.773 28.477-28.477 28.477s-28.477-12.773-28.477-28.477 12.773-28.477 28.477-28.477 28.477 12.773 28.477 28.477zm-31.23-44.004v10.137c-16.543 1.3281-29.785 14.57-31.113 31.113h-10.137c1.3672-22.129 19.121-39.883 41.25-41.25zm2.7539 88.105c-23.398 0-42.578-18.301-44.004-41.348h10.137c1.4062 17.461 16.055 31.23 33.867 31.23 8.3789 0 16.055-3.0469 21.992-8.1055l7.1484 7.168c-7.7734 6.875-17.969 11.055-29.141 11.055zm33.047-14.941l-7.168-7.1484c4.4922-5.2734 7.4023-11.934 7.9883-19.238h10.137c-0.625 10.078-4.6484 19.238-10.957 26.387z"/>
  <path d="m41.367 66.562c0.37109 0.19531 0.78125 0.29297 1.1719 0.29297 0.91797 0 1.7969-0.48828 2.2461-1.3672l14.922-28.652c0.64453-1.2305 0.15625-2.7734-1.0742-3.418-1.2305-0.64453-2.7734-0.15625-3.418 1.0742l-14.922 28.652c-0.64453 1.25-0.15625 2.7734 1.0742 3.418z"/>
  <path d="m40.469 50.352c2.0898 0 4.082-1.0156 5.5078-2.793 1.2891-1.6211 2.0117-3.75 2.0117-5.9961s-0.70312-4.375-2.0117-5.9961c-1.4062-1.7773-3.418-2.793-5.5078-2.793s-4.082 1.0156-5.5078 2.793c-1.2891 1.6211-2.0117 3.75-2.0117 5.9961s0.70312 4.375 2.0117 5.9961c1.4258 1.7773 3.4375 2.793 5.5078 2.793zm0-12.52c1.1523 0 2.4414 1.5234 2.4414 3.7305 0 2.1875-1.2891 3.7305-2.4414 3.7305s-2.4414-1.5234-2.4414-3.7305c0-2.1875 1.2891-3.7305 2.4414-3.7305z"/>
  <path d="m54.023 52.441c-1.2891 1.6211-2.0117 3.75-2.0117 5.9961s0.70312 4.375 2.0117 5.9961c1.4062 1.7773 3.418 2.793 5.5078 2.793s4.082-1.0156 5.5078-2.793c1.2891-1.6211 2.0117-3.75 2.0117-5.9961s-0.70312-4.375-2.0117-5.9961c-1.4062-1.7773-3.418-2.793-5.5078-2.793s-4.1016 1.0156-5.5078 2.793zm7.9492 5.9961c0 2.1875-1.2891 3.7305-2.4414 3.7305s-2.4414-1.5234-2.4414-3.7305c0-2.1875 1.2891-3.7305 2.4414-3.7305s2.4414 1.543 2.4414 3.7305z"/>
 </g>
</svg>
